inDegrees=no
num_controls=7
num_derivatives=13
num_iterations=32
num_multipliers=7
num_parameters=0
num_slacks=7
num_states=26
objective=0.453939
objective_accelerations=0.003121
objective_balance=0.001810
objective_effort=0.004930
objective_height=0.439072
objective_ligament=0.005007
solver_duration=497.599229
status=Solve_Succeeded
success=true
DataType=double
version=3
OpenSimVersion=4.5
endheader
time	/jointset/ground_pelvis/pelvis_tilt/value	/jointset/ground_pelvis/pelvis_tx/value	/jointset/ground_pelvis/pelvis_ty/value	/jointset/hip_l/hip_flexion_l/value	/jointset/hip_l/hip_adduction_l/value	/jointset/hip_l/hip_rotation_l/value	/jointset/back/lumbar_extension/value	/jointset/patellofemoral_l/patellar_flexion_l/value	/jointset/knee_l/knee_flexion_l/value	/jointset/knee_l/knee_adduction_l/value	/jointset/knee_l/knee_rotation_l/value	/jointset/ankle_l/ankle_angle_l/value	/jointset/subtalar_l/subtalar_angle_l/value	/jointset/ground_pelvis/pelvis_tilt/speed	/jointset/ground_pelvis/pelvis_tx/speed	/jointset/ground_pelvis/pelvis_ty/speed	/jointset/hip_l/hip_flexion_l/speed	/jointset/hip_l/hip_adduction_l/speed	/jointset/hip_l/hip_rotation_l/speed	/jointset/back/lumbar_extension/speed	/jointset/patellofemoral_l/patellar_flexion_l/speed	/jointset/knee_l/knee_flexion_l/speed	/jointset/knee_l/knee_adduction_l/speed	/jointset/knee_l/knee_rotation_l/speed	/jointset/ankle_l/ankle_angle_l/speed	/jointset/subtalar_l/subtalar_angle_l/speed	/forceset/tau_hip_flexion_l	/forceset/tau_hip_adduction_l	/forceset/tau_hip_rotation_l	/forceset/tau_knee_flexion_l	/forceset/tau_ankle_angle_l	/forceset/tau_subtalar_angle_l	/forceset/tau_lumbar_extension	lambda_cid13_p0	lambda_cid13_p1	lambda_cid13_p2	lambda_cid13_p3	lambda_cid13_p4	lambda_cid13_p5	lambda_cid14_p0	/jointset/ground_pelvis/pelvis_tilt/accel	/jointset/ground_pelvis/pelvis_tx/accel	/jointset/ground_pelvis/pelvis_ty/accel	/jointset/hip_l/hip_flexion_l/accel	/jointset/hip_l/hip_adduction_l/accel	/jointset/hip_l/hip_rotation_l/accel	/jointset/back/lumbar_extension/accel	/jointset/patellofemoral_l/patellar_flexion_l/accel	/jointset/knee_l/knee_flexion_l/accel	/jointset/knee_l/knee_adduction_l/accel	/jointset/knee_l/knee_rotation_l/accel	/jointset/ankle_l/ankle_angle_l/accel	/jointset/subtalar_l/subtalar_angle_l/accel	gamma_cid13_p0	gamma_cid13_p1	gamma_cid13_p2	gamma_cid13_p3	gamma_cid13_p4	gamma_cid13_p5	gamma_cid14_p0
0	0.09009979478643132	0.08752960443990465	0.9112134610866184	0.1266922784136757	-0.2707653225510107	-0.2115068914280323	-0.2144969558742783	0.2051545070142013	0.2051545070141877	0.02562481605735221	-0.09794920851454908	0.09024313228550125	0.1885016731002023	0	0	0	0	0	0	0	0	0	0	0	0	0	0.0847176968466717	0.01249993248154085	0.01021865543022394	-0.2257198862182761	0.1986749596098861	-0.05477368813128047	-0.01332400362788375	31.64855526351306	26.0612508059036	-13.36189158083567	-27.25382840650408	-458.5067722784694	-38.77976085953629	-23.16983810549249	0.2859145606021155	0.6106527041496775	-0.03144790610723673	-0.5310668947927923	-0.2268755679583014	0.0149727342128607	-0.4251159405655092	1.067694573892767	1.067694573892714	-0.1362613311410623	-0.1459507104241929	1.331814019850059	0.268606561278689	8.290066000760325e-10	1.828720413347607e-09	3.311382552140292e-10	1.532869432155554e-09	1.441281650374648e-08	1.385612928905291e-08	-7.215971105220706e-10
0.01	0.09011115378108601	0.08756017921361613	0.9112119468071562	0.1266669144649905	-0.2707760756236631	-0.2115065838164758	-0.2145193911942096	0.2052042175947703	0.2052042175947765	0.02561823896905457	-0.09795596101335247	0.09030771989452402	0.1885149860691897	0.001967133992895781	0.006120035439368615	-0.0003014397536338706	-0.004918305637294461	-0.002105492131484464	5.130275324627339e-05	-0.004591850636399772	0.009623014652199701	0.009623014652197358	-0.001310591605638133	-0.001279187400988513	0.01273787606164892	0.002643059111801336	0.08914716370371434	0.0151579559969466	0.01058968687053883	-0.2333058832117627	0.2097660191201611	-0.05937964932089422	-0.01646047416116119	34.71373698716157	28.10945184456325	-14.35609695950775	-29.07368586387365	-459.3762167959943	-35.37356855859055	-23.1701513155089	0.1064132398805489	0.6134413736452407	-0.02927670657388092	-0.4490394674752397	-0.1956162687102886	-0.001324350054501704	-0.4919376217621408	0.8617398361811507	0.8617398361808555	-0.1277348317823805	-0.1082055165112062	1.217827612953318	0.2592250346591685	5.139797769465919e-10	2.977795312782255e-09	-2.324151946999398e-09	6.963458307852131e-10	5.945077860957899e-09	9.060984052541433e-09	4.677084844934447e-11
0.02	0.09013304419989764	0.08765210682368267	0.9112074611908406	0.1265970020460433	-0.2708065296642129	-0.2115060698565689	-0.2145908886198281	0.205340585306919	0.2053405853069187	0.02559870061344305	-0.09797336593847651	0.09049429690689408	0.188554143519001	0.002106284835788683	0.01227056727101302	-0.000594267370691157	-0.008909694045683359	-0.003940193581631405	4.126966909358869e-05	-0.00981242113612325	0.01733142631629686	0.01733142631629274	-0.00259225347157397	-0.002130485264977784	0.02439788066852792	0.005168896164726961	0.09357663056046085	0.01781597951230743	0.0109607183108472	-0.2408918802054533	0.220857078630356	-0.06398561051058971	-0.01959694469459509	37.78403395077087	30.16016264481212	-15.35459223213926	-30.93841369559025	-460.1702738500821	-31.94324707763806	-23.17095539805733	-0.07968206939793615	0.6167519826043626	-0.02972547879190878	-0.3456834490116116	-0.1727174316907988	0.002705566733159244	-0.5508599132299514	0.6847739762723252	0.6847739762723868	-0.1304753832006205	-0.06037280302439069	1.116239728895545	0.245162149503332	1.989529538171512e-10	4.126870212216904e-09	-4.979442149212824e-09	-1.401777705851275e-10	-2.522660781830678e-09	4.265838816029956e-09	8.151388074207596e-10
0.03	0.09015126806394909	0.08780547170879884	0.9112000773510667	0.1264897131539784	-0.2708546268137923	-0.2115057919770408	-0.2147154519803173	0.2055483720195143	0.2055483720195066	0.0255662238330962	-0.09799805846995209	0.09079409684882241	0.1886180349819137	0.001645136632377909	0.01838541929508969	-0.0008814818949043705	-0.0126109504329664	-0.005694939663953969	1.037982133643777e-05	-0.01498070031674779	0.02428850360586176	0.02428850360586049	-0.003917717587522981	-0.002834788177972235	0.0355805331063988	0.007599608117093814	0.09090711584235883	0.01838804452183971	0.01069008037055173	-0.2360816153334694	0.213969262061934	-0.06294793928174455	-0.01768969337986369	35.6935254643207	29.7081342567785	-14.86286661911926	-29.50801209188973	-459.9521179370405	-32.36902562874047	-23.1721138198843	-0.0133339091600282	0.6063032110617077	-0.02806717457608112	-0.3917766876769	-0.1792085208722875	-0.006574265939620945	-0.4818793228308129	0.7105625498859434	0.7105625498862529	-0.1357739838483641	-0.07947503803062084	1.122042007762003	0.2405574231275766	7.267920236409489e-10	3.88526384866509e-09	-4.285318094059733e-09	7.055055081643424e-11	2.341894897012249e-09	6.912240834269396e-09	6.220417495823332e-10
0.04	0.09016807990327715	0.08801947539390445	0.9111898518189834	0.1263435257071901	-0.2709207424890631	-0.2115059405970659	-0.2148881116130889	0.2058276070939181	0.205827607093918	0.02552005399999938	-0.09803059723108208	0.09120627611643775	0.1887059399053549	0.001823879895127598	0.0243983272689042	-0.00116260583256891	-0.01668940498388041	-0.007543898721048224	-4.403024279734238e-05	-0.01943167559138656	0.03162109867892754	0.03162109867892882	-0.005330864025731997	-0.003699731194714914	0.04687374580543499	0.009971588270423676	0.08823760112404913	0.01896010953133659	0.01041944243030243	-0.2312713504615477	0.2070814454934976	-0.06191026805294512	-0.01578244206528833	33.60754851325354	29.25805256567487	-14.37458124801695	-28.11958889710236	-459.6709679714016	-32.7755604594468	-23.17365069784784	0.04829622383466011	0.5963631725514761	-0.02850736148216313	-0.4211230817377408	-0.1915600266451405	-0.00199847654208075	-0.4073991320325098	0.7598775329725659	0.7598775329725663	-0.1480118476526422	-0.0925008237740827	1.138351781128101	0.233415789695726	1.272009771669969e-09	3.614983644639327e-09	-3.522133951125888e-09	3.028716953679324e-10	7.481343242280572e-09	9.712076816524322e-09	4.09120670778755e-10
0.05	0.09018848453319206	0.0882927167012615	0.9111768373774718	0.1261559348157576	-0.2710054214703606	-0.2115066765350372	-0.2151026987245546	0.2061805893435969	0.2061805893435791	0.02545969348969091	-0.09807214479366309	0.0917306197767552	0.1888172011914566	0.002224348101201913	0.03019474606893571	-0.001439958648957692	-0.02076451929464826	-0.009367166811457986	-0.0001003596065704051	-0.02346632188783133	0.03889278254542806	0.03889278254542809	-0.006716361360997572	-0.004592585467231446	0.05788171638251505	0.01226477308442001	0.0871036539927752	0.01893898556525939	0.01025661218443992	-0.2284599545138735	0.2019361658844721	-0.06086546495894004	-0.01507441612537073	32.03282894477444	28.82557529754958	-14.01499942100872	-26.74500256276852	-459.8025953671602	-33.45853454506962	-23.17561039231188	0.03101753987166466	0.5630030749398002	-0.02729913077165622	-0.3910672957995233	-0.1739998081147226	-0.007030064651776635	-0.3985836555594947	0.6984284269457623	0.6984284269454929	-0.1300873953485659	-0.0850988085654228	1.065029499943379	0.2248852704236675	9.088789105440852e-10	6.020470774822874e-09	-5.502655944806788e-09	4.355483166510359e-10	5.214376867226976e-09	1.144291001686699e-08	6.864201204487444e-10
0.06	0.0902119129293223	0.08862226656485939	0.9111610594299858	0.1259295204431972	-0.2711075910541361	-0.2115078917463158	-0.2153570495544078	0.2066038113546258	0.2066038113546257	0.02538622426224729	-0.09812210511489561	0.09236164510363166	0.1889509174143326	0.002428633142450647	0.03566003851706789	-0.001715307027438125	-0.02445410120756162	-0.0110420192169053	-0.0001398849046159295	-0.02738441926857063	0.04566905095021082	0.04566905095020957	-0.007952607451667794	-0.005382282922749237	0.06821007911740852	0.01446257562529516	0.08596970686159704	0.01891786159917427	0.01009378193865839	-0.2256485585661386	0.1967908862754702	-0.05982066186493557	-0.01436639018538872	30.4625274266063	28.39470112847209	-13.65838788502084	-25.41076948391241	-459.8742551803898	-34.12363455724649	-23.17794601678272	0.009059590870027084	0.5301379021711783	-0.02810647390048263	-0.3440166021667825	-0.1618768896526575	0.001362336603509809	-0.3840893488911392	0.6607944406290736	0.6607944406290734	-0.1181615987335943	-0.07186946037437821	1.002430212690296	0.2143393350712909	5.07501792190627e-10	8.5386217927626e-09	-7.598702407397782e-09	5.640293790596804e-10	2.635561451317716e-09	1.312873257376071e-08	9.843604344755155e-10
